<?xml version="1.0" encoding="utf-8"?>
<!-- Generator: Adobe Illustrator 27.5.0, SVG Export Plug-In . SVG Version: 6.00 Build 0)  -->
<svg version="1.1" id="Layer_1" xmlns="http://www.w3.org/2000/svg" xmlns:xlink="http://www.w3.org/1999/xlink" x="0px" y="0px"
	 viewBox="0 0 1200 1200" style="enable-background:new 0 0 1200 1200;" xml:space="preserve">
<rect x="1" y="2" style="fill:#FFFFFF;" width="1200" height="1200"/>
<g>
	<g>
		<path style="fill:#47A0E2;" d="M188.987,606.752c-1.248-108.008,41.326-216.135,126.621-295.148
			c85.294-79.011,196.358-113.203,303.957-103.711l2.877-2.665c-7.49-0.706-15.024-1.229-22.602-1.517
			c-106.386-4.069-207.991,33.537-286.092,105.885c-78.105,72.349-123.356,170.785-127.425,277.171
			c-0.29,7.578-0.343,15.128-0.215,22.652L188.987,606.752z"/>
		<path style="fill:#47A0E2;" d="M926.308,402.131l2.131-1.974c-14.451-24.508-31.627-47.649-51.424-69.021
			c-28.163-30.401-60.291-55.799-95.286-75.755l-2.226,2.062c34.703,19.599,67.003,44.786,95.504,75.551
			C894.971,354.548,912.048,377.758,926.308,402.131z"/>
		<path style="fill:#47A0E2;" d="M977.211,552.683c15.187,122.221-26.55,249.811-123.598,339.71
			C693.49,1040.722,442.545,1031.126,294.217,871c-28.502-30.766-51.146-64.894-68.039-100.993l-2.226,2.063
			c17.224,36.418,40.094,70.391,68.256,100.791c72.35,78.106,170.785,123.359,277.17,127.427
			c106.389,4.067,207.99-33.536,286.096-105.886c78.103-72.351,123.356-170.785,127.425-277.172
			c0.864-22.62-0.172-45.02-3.01-67.029L977.211,552.683z"/>
	</g>
	<g>
		<path style="fill:#47A0E2;" d="M296.896,444.287c12.095-22.065,26.916-43.076,44.531-62.526
			c118.954-131.348,320.843-143.894,455.085-30.218l1.761-1.944c-64.246-54.475-145.482-82.09-230.016-77.905
			c-88.229,4.37-169.475,42.834-228.771,108.31c-17.945,19.814-33.21,41.392-45.68,64.284H296.896z"/>
		<path style="fill:#47A0E2;" d="M257.219,583.085h-2.797c-0.645,11.668-0.702,23.433-0.117,35.268
			c4.186,84.533,39.691,162.646,100.245,221.196l1.762-1.943C285.452,769.001,251.987,675.315,257.219,583.085z"/>
		<path style="fill:#47A0E2;" d="M875.466,444.287c-3.327-6.124-6.853-12.145-10.573-18.056l-1.924,2.124
			c3.264,5.236,6.357,10.554,9.301,15.932H875.466z"/>
		<path style="fill:#47A0E2;" d="M914.769,583.085h-2.797c4.906,84.773-22.803,171.381-84.176,239.152
			c-100.554,111.03-260.36,137.143-388.481,73.91l-1.924,2.126c50.13,25.011,106.087,36.877,163.574,34.03
			c88.229-4.367,169.475-42.835,228.773-108.308c59.296-65.475,89.547-150.124,85.179-238.352
			C914.876,584.789,914.819,583.938,914.769,583.085z"/>
	</g>
	<g>
		<path style="fill:#47A0E2;" d="M721.929,931.526c4.826-2.016,9.667-4.163,14.392-6.392l-1.117-2.367
			c-4.688,2.209-9.494,4.344-14.284,6.344L721.929,931.526z"/>
		<path style="fill:#47A0E2;" d="M300.95,813.996l-2.098,1.565c3.122,4.188,6.377,8.362,9.673,12.395l2.029-1.654
			C307.283,822.295,304.05,818.153,300.95,813.996z"/>
		<path style="fill:#47A0E2;" d="M283.433,788.185l-2.23,1.373c2.732,4.435,5.602,8.876,8.534,13.194l2.168-1.471
			C288.995,796.995,286.144,792.588,283.433,788.185z"/>
		<path style="fill:#47A0E2;" d="M245.459,702.771l-2.512,0.736c1.47,5.022,3.071,10.071,4.759,15.011l2.477-0.848
			C248.507,712.769,246.918,707.756,245.459,702.771z"/>
		<path style="fill:#47A0E2;" d="M342.502,860.532l-1.793,1.908c3.803,3.569,7.744,7.109,11.71,10.519l1.705-1.984
			C350.186,867.59,346.276,864.074,342.502,860.532z"/>
		<path style="fill:#47A0E2;" d="M268.263,760.902l-2.344,1.17c2.334,4.675,4.808,9.362,7.345,13.929l2.29-1.272
			C273.033,770.195,270.579,765.542,268.263,760.902z"/>
		<path style="fill:#47A0E2;" d="M255.566,732.346l-2.436,0.957c1.911,4.869,3.952,9.758,6.073,14.526l2.393-1.062
			C259.491,742.032,257.462,737.18,255.566,732.346z"/>
		<path style="fill:#47A0E2;" d="M692.362,942.352c4.982-1.576,9.996-3.285,14.901-5.083l-0.9-2.459
			c-4.867,1.783-9.847,3.483-14.791,5.047L692.362,942.352z"/>
		<path style="fill:#47A0E2;" d="M630.608,953.383l0.34,2.597c5.184-0.684,10.42-1.487,15.565-2.393l-0.454-2.581
			C640.95,951.906,635.751,952.705,630.608,953.383z"/>
		<path style="fill:#47A0E2;" d="M661.391,947.959l0.564,2.559c5.105-1.133,10.253-2.394,15.294-3.745l-0.676-2.529
			C671.566,945.585,666.459,946.838,661.391,947.959z"/>
		<path style="fill:#47A0E2;" d="M366.201,880.896l-1.616,2.06c4.111,3.229,8.349,6.409,12.594,9.453l1.523-2.13
			C374.491,887.262,370.284,884.104,366.201,880.896z"/>
		<path style="fill:#47A0E2;" d="M391.609,899.107l-1.431,2.195c4.38,2.857,8.883,5.652,13.383,8.315l1.331-2.257
			C400.427,904.721,395.957,901.947,391.609,899.107z"/>
		<path style="fill:#47A0E2;" d="M456.558,932.47c-3.286-1.281-6.565-2.593-9.794-3.965l-1.023,2.411
			c3.691,1.568,7.445,3.063,11.204,4.508L456.558,932.47z"/>
		<path style="fill:#47A0E2;" d="M418.532,915.023l-1.234,2.312c4.617,2.459,9.349,4.85,14.069,7.104l1.129-2.362
			C427.81,919.838,423.112,917.465,418.532,915.023z"/>
		<path style="fill:#47A0E2;" d="M320.694,838.175l-1.954,1.744c3.478,3.893,7.09,7.763,10.736,11.502l1.874-1.83
			C327.73,845.882,324.145,842.04,320.694,838.175z"/>
		<path style="fill:#47A0E2;" d="M311.424,378.77l-2.024-1.664c-3.324,4.047-6.593,8.216-9.72,12.387l2.095,1.571
			C304.88,386.923,308.125,382.786,311.424,378.77z"/>
		<path style="fill:#47A0E2;" d="M353.406,332.202c-3.962,3.388-7.907,6.915-11.729,10.485l1.788,1.914
			c3.794-3.544,7.71-7.045,11.643-10.407L353.406,332.202z"/>
		<path style="fill:#47A0E2;" d="M330.418,353.681c-3.649,3.725-7.271,7.586-10.765,11.48l1.949,1.75
			c3.469-3.867,7.064-7.7,10.687-11.397L330.418,353.681z"/>
		<path style="fill:#47A0E2;" d="M375.946,314.478c-3.494,2.53-6.975,5.123-10.364,7.77l1.611,2.064
			c2.993-2.337,6.059-4.627,9.138-6.876L375.946,314.478z"/>
		<path style="fill:#47A0E2;" d="M522.598,255.115l-0.456-2.579c-4.641,0.822-9.319,1.761-13.942,2.77l0.339,2.604
			C513.197,256.889,517.917,255.944,522.598,255.115z"/>
		<path style="fill:#47A0E2;" d="M599.615,956.098l0.337,2.604c5.102-0.227,10.261-0.566,15.346-1.009l-0.23-2.61
			C609.948,955.532,604.749,955.871,599.615,956.098z"/>
		<path style="fill:#47A0E2;" d="M290.511,402.3c-2.949,4.315-5.842,8.755-8.6,13.198l2.226,1.382
			c2.736-4.411,5.608-8.819,8.536-13.103L290.511,402.3z"/>
		<path style="fill:#47A0E2;" d="M273.902,429.067c-2.557,4.554-5.048,9.234-7.406,13.91l2.337,1.181
			c2.342-4.643,4.815-9.288,7.35-13.81L273.902,429.067z"/>
		<path style="fill:#47A0E2;" d="M239.045,516.738c-1.27,5.079-2.443,10.259-3.488,15.395l2.566,0.522
			c1.035-5.1,2.201-10.241,3.462-15.282L239.045,516.738z"/>
		<path style="fill:#47A0E2;" d="M259.708,457.205c-2.148,4.773-4.216,9.656-6.15,14.519l2.432,0.967
			c1.92-4.824,3.975-9.674,6.105-14.41L259.708,457.205z"/>
		<path style="fill:#47A0E2;" d="M248.054,486.503c-1.716,4.945-3.346,9.998-4.843,15.014l2.512,0.748
			c1.484-4.98,3.102-9.995,4.806-14.903L248.054,486.503z"/>
		<path style="fill:#47A0E2;" d="M925.707,704.91c1.504-5.025,2.912-10.144,4.188-15.214l-2.54-0.64
			c-1.264,5.034-2.665,10.115-4.155,15.104L925.707,704.91z"/>
		<path style="fill:#47A0E2;" d="M907.591,459.644l2.396-1.06c-2.116-4.774-4.37-9.568-6.703-14.252l-2.345,1.168
			C903.253,450.148,905.491,454.908,907.591,459.644z"/>
		<path style="fill:#47A0E2;" d="M858.722,380.054l2.029-1.654c-3.299-4.049-6.732-8.078-10.2-11.973l-1.957,1.743
			C852.037,372.035,855.446,376.033,858.722,380.054z"/>
		<path style="fill:#47A0E2;" d="M750.413,918.109c4.608-2.426,9.229-4.994,13.729-7.625l-1.321-2.261
			c-4.467,2.613-9.051,5.161-13.628,7.57L750.413,918.109z"/>
		<path style="fill:#47A0E2;" d="M877.344,405.093l2.168-1.469c-2.923-4.32-5.984-8.63-9.098-12.817l-2.103,1.563
			C871.401,396.525,874.439,400.806,877.344,405.093z"/>
		<path style="fill:#47A0E2;" d="M585.57,249.617l0.006-2.618c-5.218-0.01-10.516,0.098-15.744,0.32l0.113,2.616
			C575.132,249.715,580.39,249.608,585.57,249.617z"/>
		<path style="fill:#47A0E2;" d="M538.043,252.726l0.765-0.101c5.158-0.673,10.389-1.241,15.537-1.685l-0.222-2.609
			c-5.19,0.449-10.456,1.02-15.66,1.698l-0.756,0.1L538.043,252.726z"/>
		<path style="fill:#47A0E2;" d="M616.791,251.056l0.237-2.607c-5.205-0.471-10.491-0.833-15.711-1.074l-0.12,2.616
			C606.379,250.23,611.626,250.588,616.791,251.056z"/>
		<path style="fill:#47A0E2;" d="M708.089,271.893l0.92-2.454c-4.918-1.839-9.926-3.588-14.895-5.198l-0.807,2.49
			C698.237,268.33,703.21,270.067,708.089,271.893z"/>
		<path style="fill:#47A0E2;" d="M678.302,262.235l0.697-2.526c-5.036-1.389-10.187-2.685-15.305-3.855l-0.582,2.554
			C668.192,259.568,673.303,260.855,678.302,262.235z"/>
		<path style="fill:#47A0E2;" d="M647.758,255.265l0.47-2.576c-5.149-0.937-10.384-1.767-15.554-2.468l-0.353,2.594
			C637.454,253.513,642.648,254.337,647.758,255.265z"/>
		<path style="fill:#47A0E2;" d="M893.665,431.664l2.29-1.271c-2.533-4.564-5.198-9.129-7.922-13.564l-2.233,1.372
			C888.504,422.602,891.15,427.132,893.665,431.664z"/>
		<path style="fill:#47A0E2;" d="M849.123,841.183c3.493-3.886,6.948-7.9,10.266-11.935l-2.021-1.662
			c-3.293,4.003-6.723,7.988-10.193,11.848L849.123,841.183z"/>
		<path style="fill:#47A0E2;" d="M869.122,816.873c3.135-4.173,6.227-8.479,9.183-12.797l-2.161-1.479
			c-2.936,4.287-6.003,8.56-9.115,12.702L869.122,816.873z"/>
		<path style="fill:#47A0E2;" d="M886.917,790.887c2.763-4.44,5.462-9.003,8.027-13.558l-2.284-1.285
			c-2.545,4.521-5.225,9.052-7.966,13.459L886.917,790.887z"/>
		<path style="fill:#47A0E2;" d="M777.526,902.254c4.373-2.827,8.753-5.793,13.009-8.818l-1.516-2.138
			c-4.226,3.007-8.572,5.952-12.914,8.755L777.526,902.254z"/>
		<path style="fill:#47A0E2;" d="M902.364,763.426c2.36-4.67,4.648-9.455,6.802-14.221l-2.387-1.078
			c-2.137,4.734-4.408,9.482-6.751,14.117L902.364,763.426z"/>
		<path style="fill:#47A0E2;" d="M803.146,884.047c4.11-3.202,8.21-6.548,12.188-9.943l-1.699-1.991
			c-3.948,3.368-8.021,6.688-12.1,9.867L803.146,884.047z"/>
		<path style="fill:#47A0E2;" d="M827.076,863.635c3.819-3.566,7.612-7.261,11.27-10.983l-1.871-1.835
			c-3.629,3.695-7.394,7.364-11.187,10.9L827.076,863.635z"/>
		<path style="fill:#47A0E2;" d="M933.797,549.41l2.59-0.397c-0.794-5.19-1.71-10.408-2.719-15.509l-2.571,0.509
			C932.1,539.077,933.01,544.257,933.797,549.41z"/>
		<path style="fill:#47A0E2;" d="M915.33,734.694c1.941-4.856,3.799-9.827,5.521-14.773l-2.474-0.863
			c-1.709,4.913-3.555,9.845-5.479,14.666L915.33,734.694z"/>
		<path style="fill:#47A0E2;" d="M918.97,488.749l2.482-0.845c-1.686-4.948-3.505-9.924-5.407-14.787l-2.438,0.952
			C915.495,478.897,917.299,483.836,918.97,488.749z"/>
		<path style="fill:#47A0E2;" d="M927.724,518.75l2.545-0.621c-1.238-5.068-2.608-10.186-4.072-15.208l-2.517,0.733
			C925.134,508.641,926.494,513.718,927.724,518.75z"/>
		<path style="fill:#47A0E2;" d="M939.794,580.314c-0.336-5.19-0.793-10.467-1.363-15.687l-2.602,0.285
			c0.563,5.179,1.017,10.419,1.352,15.571L939.794,580.314z"/>
		<path style="fill:#47A0E2;" d="M933.397,674.303c1.045-5.12,1.99-10.332,2.807-15.495l-2.586-0.41
			c-0.811,5.124-1.749,10.301-2.786,15.382L933.397,674.303z"/>
		<path style="fill:#47A0E2;" d="M938.316,643.202c0.585-5.189,1.063-10.466,1.415-15.682l-2.612-0.179
			c-0.352,5.178-0.822,10.415-1.404,15.568L938.316,643.202z"/>
		<path style="fill:#47A0E2;" d="M940.451,611.788c0.123-5.229,0.127-10.526,0.018-15.746l-2.618,0.056
			c0.108,5.181,0.102,10.439-0.019,15.631L940.451,611.788z"/>
	</g>
	
		<ellipse transform="matrix(0.7071 -0.7071 0.7071 0.7071 -254.4483 589.7037)" style="fill:#47A0E2;" cx="584.611" cy="601.998" rx="306.265" ry="306.265"/>
	<circle style="fill:#47A0E2;" cx="1017.156" cy="638.65" r="14.181"/>
	<path style="fill:#47A0E2;" d="M899.15,287.627c0,4.569-3.704,8.273-8.273,8.273c-4.568,0-8.274-3.704-8.274-8.273
		c0-4.569,3.705-8.274,8.274-8.274C895.446,279.353,899.15,283.058,899.15,287.627z"/>
	<path style="fill:#47A0E2;" d="M201.424,695.62c0,8.494-6.887,15.38-15.383,15.38c-8.494,0-15.378-6.886-15.378-15.38
		c0-8.495,6.885-15.382,15.378-15.382C194.538,680.238,201.424,687.125,201.424,695.62z"/>
	<g>
		<rect x="620.07" y="686.199" style="fill:#FFFFFF;" width="61.887" height="38.627"/>
		<path style="fill:#FFFFFF;" d="M718.029,734.651H583.996c-3.854,0-3.854-12.5,0-12.5h134.033
			C721.885,722.151,721.885,734.651,718.029,734.651z"/>
		<path style="fill:#FFFFFF;" d="M402.817,653.035v14.371c0,12.769,10.448,23.221,23.225,23.221h449.946
			c12.769,0,23.22-10.451,23.22-23.221v-14.371H402.817z"/>
		<path style="fill:#161D21;" d="M899.208,659.883V378.448c0-12.773-10.45-23.222-23.22-23.222H426.042
			c-12.777,0-23.225,10.449-23.225,23.222v281.435H899.208z"/>
		<rect x="418.784" y="372.642" style="fill:#FFD11D;" width="464.457" height="269.963"/>
		<rect x="418.784" y="370.144" style="fill:#FFFFFF;" width="464.457" height="8.875"/>
	</g>
	<g>
		<g>
			<g>
				<g>
					<path style="fill:#B0B0B0;" d="M193.065,863.911c0,0-2.802,5.22,17.104,9.566h416.717c0,0,13.941-0.889,17.613-7.463
						l0.023-3.599L193.065,863.911z"/>
					<path style="fill:#FFFFFF;" d="M193.163,853.379H644.67v11.59c0,0,0.679,1.551-4.638,1.162H197.415
						c0,0-4.159,1.167-4.545-1.547L193.163,853.379z"/>
					<path style="fill:#B0B0B0;" d="M623.698,860.151c0,0.446-0.3,0.809-0.669,0.809h-15.365c-0.37,0-0.667-0.363-0.667-0.809l0,0
						c0-0.456,0.297-0.823,0.667-0.823h15.365C623.398,859.328,623.698,859.695,623.698,860.151L623.698,860.151z"/>
				</g>
				<path style="fill:#B0B0B0;" d="M388.25,853.467c0,0-1.741,5.807,4.058,6.384h52.38c0,0,5.572,0.723,4.828-6.184L388.25,853.467z
					"/>
				<g>
					<linearGradient id="SVGID_1_" gradientUnits="userSpaceOnUse" x1="449.2429" y1="853.7891" x2="449.2429" y2="853.6523">
						<stop  offset="0.0244" style="stop-color:#5F6767"/>
						<stop  offset="0.4756" style="stop-color:#676B6C"/>
						<stop  offset="0.5137" style="stop-color:#717576"/>
						<stop  offset="0.6192" style="stop-color:#878A8B"/>
						<stop  offset="0.7202" style="stop-color:#949899"/>
						<stop  offset="0.811" style="stop-color:#999C9D"/>
					</linearGradient>
					<path style="fill:url(#SVGID_1_);" d="M449.248,853.789v-0.137h-0.01C449.238,853.694,449.238,853.741,449.248,853.789z"/>
				</g>
			</g>
		</g>
		<path style="fill:#161D21;" d="M600.278,853.324V647.533c0-9.345-7.642-16.984-16.977-16.984H254.276
			c-9.341,0-16.982,7.64-16.982,16.984v205.791H600.278z"/>
		<rect x="248.969" y="643.291" style="fill:#F76031;" width="339.63" height="197.401"/>
		<rect x="248.969" y="643.289" style="fill:#FFFFFF;" width="339.63" height="8.446"/>
	</g>
	<g>
		<g>
			<g>
				<polygon style="fill:#161D21;" points="447.777,665.119 346.515,665.119 346.515,825.482 490.155,825.482 490.155,707.5 				"/>
			</g>
			<g>
				<polygon style="fill:#FFFFFF;" points="447.777,665.119 346.515,665.119 346.515,825.482 490.155,825.482 490.155,707.5 
					447.777,707.5 				"/>
			</g>
		</g>
		<g>
			<g>
				<rect x="358.911" y="712.549" style="fill:#B0B0B0;" width="53.933" height="3.582"/>
				<rect x="358.911" y="727.214" style="fill:#B0B0B0;" width="119.179" height="3.578"/>
				<rect x="358.911" y="735.359" style="fill:#B0B0B0;" width="119.179" height="3.585"/>
				<rect x="358.911" y="743.504" style="fill:#B0B0B0;" width="119.179" height="3.585"/>
				<rect x="358.911" y="751.651" style="fill:#B0B0B0;" width="119.179" height="3.586"/>
			</g>
			<g>
				<rect x="358.911" y="759.813" style="fill:#B0B0B0;" width="119.179" height="3.581"/>
				<rect x="358.911" y="767.958" style="fill:#B0B0B0;" width="119.179" height="3.585"/>
				<rect x="358.911" y="776.104" style="fill:#B0B0B0;" width="119.179" height="3.582"/>
				<rect x="358.911" y="784.253" style="fill:#B0B0B0;" width="119.179" height="3.584"/>
			</g>
			<g>
				<rect x="358.911" y="792.356" style="fill:#B0B0B0;" width="119.179" height="3.586"/>
				<rect x="358.911" y="800.505" style="fill:#B0B0B0;" width="119.179" height="3.584"/>
				<rect x="358.911" y="808.651" style="fill:#B0B0B0;" width="119.179" height="3.587"/>
			</g>
		</g>
		<rect x="346.515" y="665.119" style="fill:#B0B0B0;" width="101.229" height="8.422"/>
	</g>
	<g style="opacity:0.2;">
		<path style="fill:#FFFFFF;" d="M644.67,864.969v-11.59H417.777v20.098h209.109c0,0,13.941-0.889,17.613-7.463l0.001-0.448
			C644.799,865.266,644.67,864.969,644.67,864.969z"/>
		<path style="fill:#FFFFFF;" d="M583.301,630.549H417.777v222.775h182.501V647.533
			C600.278,638.188,592.637,630.549,583.301,630.549z"/>
	</g>
	<g>
		<g>
			<g>
				<polygon style="fill:#161D21;" points="691.679,395.158 551.803,395.158 551.803,616.673 750.221,616.673 750.221,453.699 				
					"/>
			</g>
			<g>
				<polygon style="fill:#FFFFFF;" points="691.679,395.158 551.803,395.158 551.803,616.673 750.221,616.673 750.221,453.699 
					691.679,453.699 				"/>
			</g>
		</g>
		<g>
			<g>
				<rect x="568.925" y="460.672" style="fill:#B0B0B0;" width="74.5" height="4.95"/>
				<rect x="568.925" y="480.932" style="fill:#B0B0B0;" width="164.625" height="4.944"/>
				<rect x="568.925" y="492.185" style="fill:#B0B0B0;" width="164.625" height="4.952"/>
				<rect x="568.925" y="503.435" style="fill:#B0B0B0;" width="164.625" height="4.952"/>
				<rect x="568.925" y="514.689" style="fill:#B0B0B0;" width="164.625" height="4.951"/>
			</g>
			<g>
				<rect x="568.925" y="525.959" style="fill:#B0B0B0;" width="164.625" height="4.949"/>
				<rect x="568.925" y="537.213" style="fill:#B0B0B0;" width="164.625" height="4.952"/>
				<rect x="568.925" y="548.464" style="fill:#B0B0B0;" width="164.625" height="4.949"/>
				<rect x="568.925" y="559.721" style="fill:#B0B0B0;" width="164.625" height="4.95"/>
			</g>
			<g>
				<rect x="568.925" y="570.914" style="fill:#B0B0B0;" width="164.625" height="4.953"/>
				<rect x="568.925" y="582.172" style="fill:#B0B0B0;" width="164.625" height="4.948"/>
				<rect x="568.925" y="593.423" style="fill:#B0B0B0;" width="164.625" height="4.955"/>
			</g>
		</g>
		<rect x="551.803" y="395.158" style="fill:#B0B0B0;" width="139.831" height="11.632"/>
	</g>
	<path style="opacity:0.2;fill:#FFFFFF;" d="M875.988,355.226H651.414v379.425h66.615c3.855,0,3.855-12.5,0-12.5h-36.072v-31.524
		h194.031c12.769,0,23.22-10.451,23.22-23.221V378.448C899.208,365.675,888.758,355.226,875.988,355.226z"/>
	<path style="opacity:0.2;fill:#FFFFFF;" d="M862.948,671.841h-57.376v213.976h57.376c7.515,0,13.604-6.088,13.604-13.602V685.44
		C876.552,677.93,870.463,671.841,862.948,671.841z"/>
	<path style="fill:#161D21;" d="M736.168,685.44c0-7.51,6.091-13.599,13.606-13.599h113.174c7.515,0,13.604,6.089,13.604,13.599
		v186.775c0,7.514-6.089,13.602-13.604,13.602H749.774c-7.516,0-13.606-6.088-13.606-13.602V685.44z"/>
	<rect x="749.417" y="687.599" style="fill:#47A0E2;" width="113.891" height="182.461"/>
	<rect x="749.413" y="686.123" style="fill:#FFFFFF;" width="113.895" height="8.597"/>
	<path style="fill:#EBE5EE;" d="M806.357,883.643c-3.043,0-5.505-2.471-5.505-5.511c0-3.029,2.462-5.504,5.505-5.504
		c3.041,0,5.509,2.475,5.509,5.504C811.866,881.172,809.398,883.643,806.357,883.643z"/>
	<path style="fill:#FFFFFF;" d="M827.551,680.829c0,0.67-0.544,1.213-1.21,1.213H786.38c-0.668,0-1.211-0.543-1.211-1.213v-3.524
		c0-0.664,0.543-1.209,1.211-1.209h39.961c0.666,0,1.21,0.545,1.21,1.209V680.829z"/>
	<g>
		<g>
			<g>
				<polygon style="fill:#161D21;" points="820.926,731.875 766.685,731.875 766.685,817.773 843.625,817.773 843.625,754.577 				
					"/>
			</g>
			<g>
				<polygon style="fill:#FFFFFF;" points="820.926,731.875 766.685,731.875 766.685,817.773 843.625,817.773 843.625,754.577 
					820.926,754.577 				"/>
			</g>
		</g>
		<g>
			<g>
				<rect x="773.323" y="757.281" style="fill:#B0B0B0;" width="28.89" height="1.919"/>
				<rect x="773.323" y="765.137" style="fill:#B0B0B0;" width="63.84" height="1.916"/>
				<rect x="773.323" y="769.499" style="fill:#B0B0B0;" width="63.84" height="1.921"/>
				<rect x="773.323" y="773.861" style="fill:#B0B0B0;" width="63.84" height="1.921"/>
				<rect x="773.323" y="778.227" style="fill:#B0B0B0;" width="63.84" height="1.92"/>
			</g>
			<g>
				<rect x="773.323" y="782.597" style="fill:#B0B0B0;" width="63.84" height="1.919"/>
				<rect x="773.323" y="786.96" style="fill:#B0B0B0;" width="63.84" height="1.921"/>
				<rect x="773.323" y="791.324" style="fill:#B0B0B0;" width="63.84" height="1.917"/>
				<rect x="773.323" y="795.69" style="fill:#B0B0B0;" width="63.84" height="1.919"/>
			</g>
			<g>
				<rect x="773.323" y="800.028" style="fill:#B0B0B0;" width="63.84" height="1.921"/>
				<rect x="773.323" y="804.394" style="fill:#B0B0B0;" width="63.84" height="1.919"/>
				<rect x="773.323" y="808.758" style="fill:#B0B0B0;" width="63.84" height="1.921"/>
			</g>
		</g>
		<rect x="766.685" y="731.875" style="fill:#B0B0B0;" width="54.221" height="4.512"/>
	</g>
	<path style="opacity:0.2;fill:#FFFFFF;" d="M862.948,671.841h-57.376v213.976h57.376c7.515,0,13.604-6.088,13.604-13.602V685.44
		C876.552,677.93,870.463,671.841,862.948,671.841z"/>
</g>
</svg>
