<?xml version="1.0" encoding="utf-8"?>
<!-- Generator: Adobe Illustrator 27.5.0, SVG Export Plug-In . SVG Version: 6.00 Build 0)  -->
<svg version="1.1" xmlns="http://www.w3.org/2000/svg" xmlns:xlink="http://www.w3.org/1999/xlink" x="0px" y="0px"
	 viewBox="0 0 500 500" style="enable-background:new 0 0 500 500;" xml:space="preserve">
<g id="Background_complete">
	<g>
		<g>
			<g>
				<g>
					<g>
						<path style="fill:#E0E0E0;" d="M443.92,330.198H263.174c-3.232,0-5.862-2.63-5.862-5.862V61.062
							c0-3.232,2.63-5.862,5.862-5.862H443.92c3.232,0,5.862,2.629,5.862,5.862v263.273
							C449.783,327.568,447.153,330.198,443.92,330.198z M263.174,55.45c-3.095,0-5.612,2.518-5.612,5.612v263.273
							c0,3.095,2.518,5.612,5.612,5.612H443.92c3.095,0,5.612-2.518,5.612-5.612V61.062c0-3.094-2.518-5.612-5.612-5.612H263.174z"
							/>
					</g>
				</g>
				<g>
					<g>
						<path style="fill:#E0E0E0;" d="M235.493,330.198H54.746c-3.232,0-5.862-2.63-5.862-5.862V61.062
							c0-3.232,2.629-5.862,5.862-5.862h180.747c3.232,0,5.862,2.629,5.862,5.862v263.273
							C241.355,327.568,238.725,330.198,235.493,330.198z M54.746,55.45c-3.094,0-5.612,2.518-5.612,5.612v263.273
							c0,3.095,2.518,5.612,5.612,5.612h180.747c3.095,0,5.612-2.518,5.612-5.612V61.062c0-3.094-2.518-5.612-5.612-5.612H54.746z"
							/>
					</g>
				</g>
			</g>
			<g>
				<g>
					<rect x="0" y="391.267" style="fill:#E0E0E0;" width="500" height="0.25"/>
				</g>
			</g>
		</g>
		<rect x="51.672" y="405.531" style="fill:#E0E0E0;" width="16.06" height="0.25"/>
		<rect x="170.352" y="402.821" style="fill:#E0E0E0;" width="53.53" height="0.25"/>
		<rect x="68.732" y="414.821" style="fill:#E0E0E0;" width="36.25" height="0.25"/>
		<rect x="378.352" y="402.691" style="fill:#E0E0E0;" width="43.19" height="0.25"/>
		<rect x="430.452" y="402.691" style="fill:#E0E0E0;" width="6.33" height="0.25"/>
		<rect x="316.212" y="408.921" style="fill:#E0E0E0;" width="53.89" height="0.25"/>
	</g>
	<path style="fill:#EBEBEB;" d="M190.411,200.784c-2.399,3.654-4.013,7.668-4.873,11.808l-6.594,0.621l-0.001,12.769l6.595,0.621
		c0.859,4.139,2.473,8.152,4.872,11.807l-4.211,5.087l9.03,9.029l5.087-4.211c3.654,2.399,7.668,4.013,11.807,4.872l0.621,6.594
		l12.769-0.001l0.621-6.593c4.14-0.86,8.153-2.474,11.808-4.873l5.087,4.211l9.029-9.029l-4.211-5.087
		c2.399-3.655,4.013-7.668,4.872-11.807l6.593-0.622l0.001-12.769l-6.594-0.621c-0.86-4.139-2.474-8.153-4.873-11.807l4.211-5.087
		l-9.029-9.029l-5.087,4.211c-3.655-2.399-7.669-4.014-11.807-4.873l-0.621-6.594l-12.769,0.001l-0.621,6.593
		c-4.139,0.859-8.153,2.473-11.807,4.872l-5.087-4.211l-9.03,9.03L190.411,200.784z M231.352,207.375
		c6.75,6.75,6.751,17.696,0,24.447c-6.751,6.751-17.697,6.75-24.447,0c-6.751-6.751-6.751-17.696,0-24.447
		C213.657,200.624,224.601,200.624,231.352,207.375z"/>
	<path style="fill:#F5F5F5;" d="M140.078,168.698c-1.441,2.195-2.41,4.605-2.927,7.092l-3.96,0.373l0,7.669l3.961,0.373
		c0.516,2.486,1.485,4.896,2.926,7.092l-2.529,3.055l5.423,5.423l3.055-2.529c2.195,1.441,4.606,2.41,7.092,2.926l0.373,3.961
		l7.669,0l0.373-3.96c2.486-0.516,4.897-1.486,7.092-2.927l3.055,2.529l5.423-5.423l-2.529-3.055
		c1.441-2.195,2.41-4.605,2.926-7.092l3.96-0.373l0-7.669l-3.96-0.373c-0.516-2.486-1.486-4.897-2.927-7.091l2.529-3.055
		l-5.423-5.423l-3.055,2.529c-2.195-1.441-4.606-2.411-7.092-2.927l-0.373-3.96l-7.669,0l-0.373,3.96
		c-2.486,0.516-4.897,1.485-7.092,2.926l-3.055-2.529l-5.423,5.423L140.078,168.698z M164.669,172.656
		c4.054,4.054,4.054,10.628,0,14.683c-4.055,4.055-10.629,4.054-14.683,0c-4.055-4.055-4.055-10.628,0-14.683
		C154.04,168.602,160.614,168.602,164.669,172.656z"/>
	<path style="fill:#F5F5F5;" d="M327.191,348.061c-1.441,2.195-2.41,4.605-2.927,7.092l-3.96,0.373l0,7.669l3.961,0.373
		c0.516,2.486,1.485,4.896,2.926,7.092l-2.529,3.055l5.423,5.423l3.055-2.529c2.195,1.441,4.606,2.41,7.092,2.926l0.373,3.961
		l7.669,0l0.373-3.96c2.486-0.516,4.897-1.486,7.092-2.927l3.055,2.529l5.423-5.423l-2.529-3.055
		c1.441-2.195,2.41-4.605,2.926-7.092l3.96-0.373l0.001-7.669l-3.96-0.373c-0.516-2.486-1.486-4.897-2.927-7.091l2.53-3.055
		l-5.423-5.423l-3.055,2.529c-2.195-1.441-4.606-2.411-7.092-2.927l-0.373-3.96l-7.669,0l-0.373,3.96
		c-2.486,0.516-4.897,1.485-7.091,2.926l-3.055-2.529l-5.423,5.423L327.191,348.061z M351.781,352.019
		c4.054,4.054,4.055,10.628,0,14.683c-4.055,4.055-10.629,4.054-14.683,0c-4.055-4.055-4.055-10.628,0-14.683
		C341.153,347.965,347.726,347.965,351.781,352.019z"/>
	<path style="fill:#F5F5F5;" d="M51.819,262.746c-1.149,1.75-1.922,3.672-2.334,5.655l-3.158,0.297l0,6.115l3.158,0.298
		c0.411,1.982,1.184,3.905,2.333,5.655l-2.017,2.436l4.324,4.324l2.436-2.017c1.75,1.149,3.672,1.922,5.655,2.333l0.297,3.158
		l6.115,0l0.298-3.158c1.983-0.412,3.905-1.185,5.655-2.334l2.436,2.017l4.324-4.324l-2.017-2.436
		c1.149-1.75,1.922-3.672,2.333-5.655l3.158-0.298l0.001-6.115l-3.158-0.298c-0.412-1.982-1.185-3.904-2.334-5.655l2.017-2.436
		l-4.324-4.324l-2.436,2.017c-1.75-1.149-3.673-1.922-5.655-2.334l-0.298-3.158l-6.115,0l-0.297,3.158
		c-1.982,0.412-3.905,1.184-5.655,2.333l-2.436-2.017l-4.325,4.325L51.819,262.746z M71.427,265.903
		c3.233,3.233,3.233,8.475,0,11.708c-3.233,3.233-8.475,3.233-11.708,0c-3.233-3.233-3.233-8.475,0-11.708
		C62.952,262.67,68.193,262.669,71.427,265.903z"/>
	<path style="fill:#F5F5F5;" d="M51.904,371.468c-1.149,1.75-1.922,3.672-2.334,5.655l-3.158,0.297l0,6.116l3.158,0.298
		c0.411,1.982,1.184,3.904,2.333,5.655l-2.017,2.436l4.324,4.324l2.436-2.017c1.75,1.149,3.672,1.922,5.655,2.333l0.297,3.158
		l6.115,0l0.298-3.158c1.983-0.412,3.905-1.185,5.655-2.334l2.436,2.017l4.324-4.324l-2.017-2.436
		c1.149-1.75,1.922-3.672,2.333-5.655l3.158-0.298l0-6.115l-3.158-0.298c-0.412-1.982-1.185-3.904-2.334-5.654l2.017-2.436
		l-4.324-4.324l-2.436,2.017c-1.75-1.149-3.673-1.922-5.655-2.334l-0.298-3.158l-6.115,0l-0.297,3.158
		c-1.982,0.412-3.905,1.184-5.655,2.333l-2.436-2.017l-4.325,4.325L51.904,371.468z M71.512,374.624
		c3.233,3.233,3.233,8.475,0,11.708c-3.233,3.233-8.475,3.233-11.708,0c-3.233-3.233-3.233-8.475,0-11.708
		C63.037,371.391,68.279,371.391,71.512,374.624z"/>
	<path style="fill:#F5F5F5;" d="M376.581,231.794c-1.441,2.195-2.41,4.605-2.927,7.092l-3.96,0.373l0,7.669l3.961,0.373
		c0.516,2.486,1.485,4.897,2.926,7.092l-2.529,3.055l5.423,5.423l3.055-2.529c2.195,1.441,4.606,2.41,7.092,2.926l0.373,3.961
		l7.669,0l0.373-3.96c2.487-0.517,4.897-1.486,7.092-2.927l3.055,2.529l5.423-5.423l-2.529-3.055
		c1.441-2.195,2.41-4.605,2.926-7.092l3.96-0.373l0.001-7.669l-3.96-0.373c-0.516-2.486-1.486-4.896-2.927-7.091l2.529-3.055
		l-5.423-5.423l-3.055,2.529c-2.195-1.441-4.606-2.411-7.092-2.927l-0.373-3.96l-7.669,0.001l-0.373,3.96
		c-2.486,0.516-4.897,1.485-7.092,2.926l-3.055-2.529l-5.423,5.423L376.581,231.794z M401.171,235.752
		c4.054,4.054,4.054,10.628,0,14.683c-4.055,4.055-10.629,4.054-14.683,0c-4.055-4.055-4.055-10.628,0-14.683
		C390.543,231.698,397.116,231.697,401.171,235.752z"/>
	<path style="fill:#EBEBEB;" d="M122.663,219.398c-1.441,2.195-2.41,4.605-2.927,7.092l-3.96,0.373l0,7.669l3.961,0.373
		c0.516,2.486,1.485,4.897,2.926,7.092l-2.529,3.055l5.423,5.423l3.055-2.529c2.195,1.441,4.606,2.41,7.092,2.926l0.373,3.961
		l7.669,0l0.373-3.96c2.486-0.516,4.897-1.486,7.092-2.927l3.055,2.529l5.423-5.423l-2.529-3.055
		c1.441-2.195,2.41-4.605,2.926-7.092l3.96-0.373l0.001-7.669l-3.96-0.373c-0.516-2.486-1.486-4.896-2.927-7.091l2.529-3.055
		l-5.423-5.423l-3.055,2.529c-2.195-1.441-4.606-2.411-7.092-2.927l-0.373-3.96l-7.669,0.001l-0.373,3.96
		c-2.486,0.516-4.897,1.485-7.092,2.926l-3.055-2.529l-5.423,5.423L122.663,219.398z M147.253,223.356
		c4.054,4.054,4.054,10.628,0,14.683c-4.055,4.055-10.629,4.054-14.683,0c-4.055-4.055-4.055-10.628,0-14.683
		C136.625,219.301,143.198,219.301,147.253,223.356z"/>
	<path style="fill:#EBEBEB;" d="M67.262,318.648c-1.441,2.195-2.41,4.605-2.927,7.092l-3.96,0.373l0,7.669l3.961,0.373
		c0.516,2.486,1.485,4.897,2.926,7.092l-2.53,3.055l5.423,5.423l3.055-2.529c2.195,1.441,4.606,2.41,7.092,2.926l0.373,3.961
		l7.669,0l0.373-3.96c2.486-0.517,4.897-1.486,7.092-2.927l3.055,2.529l5.423-5.423l-2.529-3.055
		c1.441-2.195,2.41-4.605,2.926-7.092l3.96-0.373l0.001-7.669l-3.96-0.373c-0.516-2.486-1.486-4.896-2.927-7.091l2.529-3.055
		l-5.423-5.423l-3.055,2.529c-2.195-1.441-4.606-2.411-7.092-2.927l-0.373-3.96l-7.669,0l-0.373,3.96
		c-2.486,0.516-4.897,1.485-7.091,2.926l-3.055-2.529l-5.423,5.423L67.262,318.648z M91.852,322.606
		c4.054,4.054,4.054,10.628,0,14.683c-4.055,4.055-10.629,4.054-14.683,0c-4.055-4.055-4.055-10.628,0-14.683
		C81.224,318.552,87.797,318.552,91.852,322.606z"/>
	<path style="fill:#EBEBEB;" d="M298.288,267.541c-2.248,3.424-3.76,7.185-4.566,11.065l-6.179,0.582l0,11.966l6.18,0.582
		c0.805,3.878,2.317,7.639,4.566,11.064l-3.946,4.767l8.461,8.461l4.767-3.946c3.424,2.248,7.186,3.761,11.064,4.566l0.582,6.179
		l11.965-0.001l0.582-6.178c3.879-0.806,7.64-2.318,11.065-4.566l4.767,3.946l8.461-8.461l-3.946-4.767
		c2.248-3.424,3.76-7.185,4.566-11.064l6.178-0.582l0.001-11.965l-6.179-0.582c-0.805-3.878-2.318-7.64-4.566-11.064l3.946-4.767
		l-8.461-8.461l-4.767,3.946c-3.425-2.248-7.186-3.761-11.064-4.567l-0.582-6.179l-11.966,0.001l-0.582,6.178
		c-3.879,0.805-7.64,2.317-11.064,4.566l-4.767-3.946l-8.461,8.461L298.288,267.541z M336.653,273.716
		c6.325,6.326,6.326,16.582,0,22.908c-6.326,6.326-16.583,6.325-22.908,0c-6.326-6.326-6.326-16.582,0-22.908
		C320.071,267.39,330.327,267.39,336.653,273.716z"/>
	<g>
		<g>
			
				<ellipse transform="matrix(0.8119 -0.5838 0.5838 0.8119 4.3696 154.7905)" style="fill:#E0E0E0;" cx="242.392" cy="70.614" rx="34.602" ry="34.602"/>
			
				<ellipse transform="matrix(0.7071 -0.7071 0.7071 0.7071 20.6129 190.1334)" style="fill:#F0F0F0;" cx="239.818" cy="70.185" rx="34.602" ry="34.602"/>
			
				<ellipse transform="matrix(0.9741 -0.2262 0.2262 0.9741 -9.6597 56.0625)" style="fill:#FFFFFF;" cx="239.818" cy="70.185" rx="28.747" ry="28.747"/>
			<g>
				<path style="fill:#E6E6E6;" d="M240.806,94.79l-0.281-6.82c0.135-0.006,0.27-0.013,0.404-0.021l0.446,6.811
					C241.186,94.773,240.995,94.783,240.806,94.79z M229.775,92.669c-0.174-0.078-0.348-0.158-0.522-0.241l2.941-6.158
					c0.122,0.058,0.244,0.114,0.366,0.169L229.775,92.669z M252.126,91.516l-3.42-5.906l0.366-0.216l3.529,5.841
					C252.443,91.33,252.285,91.424,252.126,91.516z M220.477,85.433c-0.117-0.148-0.232-0.298-0.346-0.449l5.455-4.103l0.251,0.327
					L220.477,85.433z M260.621,83.358l-5.771-3.645l0.218-0.352l5.903,3.427l-0.091,0.15C260.82,83.04,260.721,83.2,260.621,83.358z
					 M215.614,74.71c-0.035-0.187-0.068-0.374-0.099-0.561l6.735-1.107c0.021,0.133,0.045,0.267,0.07,0.4L215.614,74.71z
					 M257.566,71.564c0.011-0.128,0.019-0.257,0.026-0.385l6.816,0.366c-0.01,0.196-0.024,0.391-0.04,0.587L257.566,71.564z
					 M222.801,64.956l-6.518-2.022l0.167-0.521l6.482,2.134L222.801,64.956z M256.178,63.175l-0.168-0.381l6.22-2.81
					c0.077,0.17,0.152,0.341,0.225,0.513L256.178,63.175z M227.184,57.641l-4.847-4.805c0.129-0.131,0.26-0.26,0.392-0.387
					l4.759,4.89L227.184,57.641z M251.052,56.377c-0.103-0.084-0.206-0.166-0.311-0.247l4.172-5.402
					c0.153,0.118,0.304,0.238,0.453,0.359L251.052,56.377z M234.457,53.213l-2.057-6.508c0.187-0.059,0.373-0.115,0.561-0.169
					l1.87,6.565C234.705,53.135,234.58,53.173,234.457,53.213z M243.355,52.736l-0.4-0.076l1.202-6.719
					c0.186,0.033,0.373,0.069,0.558,0.106L243.355,52.736z"/>
			</g>
		</g>
		<g>
			<polyline style="fill:none;stroke:#E0E0E0;stroke-linecap:round;stroke-linejoin:round;stroke-miterlimit:10;" points="
				227.655,65.872 240.228,71.012 242.761,55.734 			"/>
			<path style="fill:#E0E0E0;" d="M242.109,70.549c-0.101,1.181-1.14,2.057-2.321,1.957c-1.181-0.101-2.057-1.14-1.956-2.321
				c0.101-1.181,1.14-2.057,2.321-1.956C241.334,68.329,242.21,69.368,242.109,70.549z"/>
		</g>
	</g>
	<g>
		<g>
			
				<ellipse transform="matrix(0.9297 -0.3683 0.3683 0.9297 -42.8978 46.2474)" style="fill:#E0E0E0;" cx="99.712" cy="135.509" rx="26.157" ry="26.157"/>
			
				<ellipse transform="matrix(0.742 -0.6703 0.6703 0.742 -65.0449 100.3814)" style="fill:#F0F0F0;" cx="97.909" cy="134.707" rx="26.157" ry="26.157"/>
			
				<ellipse transform="matrix(0.6741 -0.7387 0.7387 0.6741 -67.5925 116.2278)" style="fill:#FFFFFF;" cx="97.909" cy="134.707" rx="21.731" ry="21.731"/>
			<g>
				<path style="fill:#E6E6E6;" d="M93.977,152.903l1.085-5.044c0.1,0.022,0.2,0.042,0.3,0.061l-0.962,5.069
					C94.259,152.962,94.117,152.933,93.977,152.903z M86.305,149.263c-0.113-0.09-0.225-0.182-0.336-0.275l3.318-3.951
					c0.078,0.065,0.157,0.13,0.236,0.193L86.305,149.263z M102.882,152.647l-1.386-4.97l0.309-0.089l1.478,4.943
					C103.149,152.572,103.015,152.61,102.882,152.647z M80.869,142.208c-0.058-0.131-0.113-0.262-0.168-0.394l4.769-1.971
					l0.122,0.286L80.869,142.208z M110.642,148.284l-3.534-3.759l0.226-0.216l3.672,3.624l-0.095,0.093
					C110.848,148.089,110.745,148.187,110.642,148.284z M79.338,133.44c0.009-0.143,0.021-0.286,0.033-0.429l5.139,0.464
					c-0.01,0.102-0.017,0.204-0.024,0.306L79.338,133.44z M110.637,139.074c0.032-0.092,0.062-0.184,0.092-0.277l4.919,1.557
					c-0.045,0.141-0.091,0.281-0.14,0.422L110.637,139.074z M86.443,127.661l-4.388-2.713l0.221-0.35l4.34,2.788L86.443,127.661z
					 M111.209,132.671l-0.051-0.311l5.084-0.88c0.024,0.139,0.047,0.279,0.068,0.418L111.209,132.671z M91.035,123.137l-2.639-4.433
					c0.119-0.071,0.24-0.141,0.36-0.209l2.558,4.48L91.035,123.137z M108.743,126.727c-0.059-0.081-0.119-0.16-0.181-0.24
					l4.075-3.164c0.09,0.116,0.177,0.232,0.263,0.349L108.743,126.727z M97.196,121.271l-0.274-5.152
					c0.148-0.008,0.295-0.014,0.443-0.018l0.127,5.158C97.392,121.262,97.293,121.266,97.196,121.271z M103.798,122.606
					l-0.278-0.132l2.151-4.69c0.13,0.06,0.26,0.121,0.388,0.183L103.798,122.606z"/>
			</g>
		</g>
		<g>
			<polyline style="fill:none;stroke:#E0E0E0;stroke-linecap:round;stroke-linejoin:round;stroke-miterlimit:10;" points="
				89.823,129.25 98.052,135.39 102.797,124.687 			"/>
			<path style="fill:#E0E0E0;" d="M99.517,135.407c-0.297,0.845-1.223,1.29-2.069,0.993s-1.29-1.223-0.993-2.069
				c0.297-0.846,1.223-1.29,2.069-0.993C99.369,133.636,99.814,134.562,99.517,135.407z"/>
		</g>
	</g>
	<g>
		<g>
			
				<ellipse transform="matrix(0.8603 -0.5098 0.5098 0.8603 -103.6307 266.5522)" style="fill:#E0E0E0;" cx="434.526" cy="322.357" rx="19.897" ry="19.897"/>
			
				<ellipse transform="matrix(0.6813 -0.732 0.732 0.6813 -97.4745 419.6097)" style="fill:#F0F0F0;" cx="433.155" cy="321.747" rx="19.896" ry="19.897"/>
			
				<ellipse transform="matrix(0.4249 -0.9052 0.9052 0.4249 -42.163 577.1245)" style="fill:#FFFFFF;" cx="433.155" cy="321.747" rx="16.53" ry="16.53"/>
			<g>
				<path style="fill:#E6E6E6;" d="M430.164,335.588l0.825-3.837c0.076,0.016,0.152,0.032,0.228,0.046l-0.732,3.856
					C430.379,335.633,430.271,335.611,430.164,335.588z M424.328,332.82c-0.086-0.068-0.171-0.138-0.256-0.209l2.524-3.005
					c0.059,0.05,0.119,0.099,0.179,0.146L424.328,332.82z M436.938,335.394l-1.054-3.78l0.235-0.068l1.124,3.76
					C437.141,335.336,437.039,335.365,436.938,335.394z M420.193,327.453c-0.044-0.099-0.086-0.199-0.128-0.3l3.628-1.499
					l0.092,0.218L420.193,327.453z M442.841,332.074l-2.688-2.859l0.172-0.164l2.793,2.757l-0.072,0.071
					C442.997,331.926,442.919,332.001,442.841,332.074z M419.029,320.784c0.007-0.109,0.016-0.218,0.025-0.327l3.909,0.353
					c-0.007,0.077-0.013,0.155-0.018,0.233L419.029,320.784z M442.837,325.069c0.024-0.07,0.047-0.14,0.07-0.211l3.742,1.185
					c-0.034,0.107-0.07,0.214-0.107,0.321L442.837,325.069z M424.434,316.388l-3.338-2.063l0.168-0.266l3.302,2.121L424.434,316.388
					z M443.272,320.199l-0.039-0.236l3.867-0.669c0.018,0.106,0.036,0.212,0.052,0.318L443.272,320.199z M427.927,312.946
					l-2.007-3.372c0.09-0.054,0.182-0.107,0.274-0.159l1.946,3.407L427.927,312.946z M441.396,315.677
					c-0.045-0.062-0.091-0.122-0.138-0.182l3.1-2.407c0.068,0.088,0.135,0.176,0.2,0.265L441.396,315.677z M432.613,311.527
					l-0.209-3.919c0.112-0.006,0.224-0.011,0.337-0.014l0.096,3.924C432.762,311.52,432.687,311.523,432.613,311.527z
					 M437.635,312.543l-0.212-0.1l1.636-3.568c0.099,0.046,0.198,0.092,0.295,0.14L437.635,312.543z"/>
			</g>
		</g>
		<g>
			<polyline style="fill:none;stroke:#E0E0E0;stroke-linecap:round;stroke-linejoin:round;stroke-miterlimit:10;" points="
				427.004,317.596 433.264,322.267 436.873,314.126 			"/>
			<path style="fill:#E0E0E0;" d="M434.378,322.28c-0.226,0.643-0.931,0.981-1.574,0.755c-0.643-0.226-0.981-0.931-0.755-1.574
				c0.226-0.643,0.93-0.981,1.574-0.755C434.266,320.932,434.604,321.637,434.378,322.28z"/>
		</g>
	</g>
	<g>
		<g>
			
				<ellipse transform="matrix(0.4945 -0.8692 0.8692 0.4945 72.6571 438.3719)" style="fill:#E0E0E0;" cx="413.194" cy="156.723" rx="26.643" ry="26.643"/>
			
				<ellipse transform="matrix(0.0584 -0.9983 0.9983 0.0584 231.7007 557.4604)" style="fill:#F0F0F0;" cx="411.357" cy="155.907" rx="26.643" ry="26.643"/>
			
				<ellipse transform="matrix(0.9884 -0.1521 0.1521 0.9884 -18.929 64.3892)" style="fill:#FFFFFF;" cx="411.357" cy="155.907" rx="22.135" ry="22.135"/>
			<g>
				<path style="fill:#E6E6E6;" d="M407.353,174.44l1.105-5.138c0.102,0.022,0.203,0.043,0.305,0.062l-0.98,5.163
					C407.64,174.501,407.496,174.471,407.353,174.44z M399.538,170.733c-0.115-0.092-0.229-0.185-0.342-0.28l3.379-4.024
					c0.079,0.067,0.16,0.132,0.24,0.196L399.538,170.733z M416.422,174.18l-1.411-5.062l0.315-0.091l1.505,5.035
					C416.695,174.103,416.559,174.142,416.422,174.18z M394.001,163.548c-0.059-0.133-0.116-0.267-0.171-0.401l4.857-2.007
					l0.124,0.292L394.001,163.548z M424.328,169.736l-3.6-3.829l0.23-0.22l3.74,3.692l-0.097,0.095
					C424.537,169.537,424.433,169.637,424.328,169.736z M392.441,154.616c0.01-0.146,0.021-0.292,0.034-0.437l5.234,0.473
					c-0.01,0.104-0.018,0.208-0.025,0.312L392.441,154.616z M424.323,160.355c0.033-0.093,0.063-0.188,0.093-0.282l5.011,1.586
					c-0.046,0.144-0.093,0.287-0.143,0.43L424.323,160.355z M399.679,148.73l-4.47-2.763l0.225-0.356l4.421,2.84L399.679,148.73z
					 M424.905,153.833l-0.052-0.316l5.179-0.896c0.024,0.142,0.048,0.284,0.069,0.426L424.905,153.833z M404.356,144.122
					l-2.688-4.516c0.121-0.073,0.244-0.143,0.367-0.213l2.606,4.563L404.356,144.122z M422.393,147.778
					c-0.061-0.082-0.122-0.163-0.184-0.244l4.151-3.223c0.091,0.118,0.181,0.236,0.268,0.355L422.393,147.778z M410.631,142.221
					l-0.279-5.248c0.15-0.008,0.3-0.014,0.451-0.018l0.129,5.254C410.831,142.212,410.731,142.216,410.631,142.221z
					 M417.356,143.581l-0.284-0.134l2.191-4.777c0.133,0.061,0.265,0.123,0.395,0.187L417.356,143.581z"/>
			</g>
		</g>
		<g>
			<polyline style="fill:none;stroke:#E0E0E0;stroke-linecap:round;stroke-linejoin:round;stroke-miterlimit:10;" points="
				403.121,150.348 411.504,156.603 416.336,145.701 			"/>
			<path style="fill:#E0E0E0;" d="M412.995,156.62c-0.303,0.861-1.246,1.314-2.107,1.011c-0.861-0.303-1.314-1.246-1.011-2.107
				c0.303-0.861,1.246-1.314,2.107-1.011S413.298,155.759,412.995,156.62z"/>
		</g>
	</g>
</g>
<g id="Background_simple" style="display:none;">
	<g style="display:inline;">
		<path style="fill:#407BFF;" d="M185.766,91.826c-21.564,2.847-42.358,8.907-60.801,18.413
			c-21.737,11.204-43.946,28.659-37.386,51.49c12.11,42.149,70.206,42.917,58.607,71.257c-13.139,32.101-4.328,69.757,54.63,80.228
			c111.982,19.889,247.351-96.484,209.331-160.43C386.477,112.975,300.266,76.712,185.766,91.826z"/>
		<path style="opacity:0.9;fill:#FFFFFF;" d="M185.766,91.826c-21.564,2.847-42.358,8.907-60.801,18.413
			c-21.737,11.204-43.946,28.659-37.386,51.49c12.11,42.149,70.206,42.917,58.607,71.257c-13.139,32.101-4.328,69.757,54.63,80.228
			c111.982,19.889,247.351-96.484,209.331-160.43C386.477,112.975,300.266,76.712,185.766,91.826z"/>
	</g>
</g>
<g id="Shadow">
	<g>
		<g>
			<path style="fill:#F5F5F5;" d="M458.875,450.599c0,3.387-93.517,6.132-208.875,6.132s-208.875-2.745-208.875-6.132
				c0-3.387,93.516-6.132,208.875-6.132S458.875,447.212,458.875,450.599z"/>
		</g>
	</g>
</g>
<g id="Clocks">
	<g>
		<g>
			
				<ellipse transform="matrix(0.3734 -0.9277 0.9277 0.3734 -326.3171 361.3643)" style="fill:#263238;" cx="104.348" cy="422.244" rx="26.671" ry="26.671"/>
			
				<ellipse transform="matrix(0.3734 -0.9277 0.9277 0.3734 -326.3171 361.3643)" style="opacity:0.3;" cx="104.348" cy="422.244" rx="26.671" ry="26.671"/>
			
				<ellipse transform="matrix(0.8412 -0.5407 0.5407 0.8412 -211.8632 122.3292)" style="fill:#263238;" cx="102.363" cy="421.913" rx="26.671" ry="26.671"/>
			
				<ellipse transform="matrix(0.838 -0.5457 0.5457 0.838 -213.6387 124.2026)" style="fill:#FFFFFF;" cx="102.363" cy="421.913" rx="22.158" ry="22.158"/>
			<g>
				<path d="M103.125,440.879l-0.216-5.257c0.104-0.004,0.208-0.01,0.312-0.017l0.344,5.25
					C103.418,440.865,103.271,440.873,103.125,440.879z M94.622,439.243c-0.134-0.06-0.268-0.122-0.402-0.186l2.267-4.747
					c0.094,0.045,0.188,0.088,0.282,0.13L94.622,439.243z M111.85,438.355l-2.636-4.553l0.282-0.167l2.72,4.503
					C112.095,438.211,111.973,438.284,111.85,438.355z M87.455,433.666c-0.09-0.114-0.179-0.23-0.267-0.346l4.205-3.162l0.193,0.252
					L87.455,433.666z M118.398,432.066l-4.448-2.81l0.168-0.271l4.55,2.641l-0.07,0.116
					C118.552,431.822,118.475,431.945,118.398,432.066z M83.707,425.401c-0.027-0.144-0.052-0.288-0.077-0.432l5.192-0.853
					c0.016,0.103,0.035,0.206,0.054,0.308L83.707,425.401z M116.044,422.976c0.008-0.099,0.014-0.198,0.02-0.297l5.254,0.282
					c-0.008,0.151-0.018,0.301-0.031,0.452L116.044,422.976z M89.247,417.882l-5.024-1.558l0.129-0.402l4.997,1.645L89.247,417.882z
					 M114.974,416.509l-0.13-0.294l4.795-2.166c0.059,0.131,0.118,0.263,0.174,0.395L114.974,416.509z M92.626,412.244l-3.736-3.703
					c0.099-0.101,0.201-0.2,0.302-0.298l3.669,3.769L92.626,412.244z M111.022,411.27c-0.079-0.065-0.159-0.128-0.24-0.19
					l3.216-4.164c0.118,0.091,0.234,0.183,0.349,0.277L111.022,411.27z M98.231,408.831l-1.585-5.016
					c0.144-0.045,0.287-0.089,0.433-0.131l1.441,5.06C98.423,408.771,98.326,408.801,98.231,408.831z M105.09,408.464l-0.309-0.059
					l0.927-5.179c0.144,0.026,0.287,0.053,0.43,0.082L105.09,408.464z"/>
			</g>
		</g>
		<g>
			<polyline style="fill:none;stroke:#000000;stroke-linecap:round;stroke-linejoin:round;stroke-miterlimit:10;" points="
				92.988,418.588 102.679,422.551 104.632,410.774 			"/>
			<path d="M104.129,422.194c-0.078,0.911-0.879,1.586-1.789,1.508c-0.91-0.078-1.586-0.879-1.508-1.789s0.879-1.586,1.789-1.508
				C103.532,420.482,104.207,421.283,104.129,422.194z"/>
		</g>
	</g>
	<g>
		<g>
			<g>
				
					<ellipse transform="matrix(0.4907 -0.8713 0.8713 0.4907 -141.0602 563.9156)" style="fill:#407BFF;" cx="411.871" cy="402.628" rx="24.932" ry="24.932"/>
				
					<ellipse transform="matrix(0.4907 -0.8713 0.8713 0.4907 -141.0602 563.9156)" style="opacity:0.3;" cx="411.871" cy="402.628" rx="24.932" ry="24.932"/>
				
					<ellipse transform="matrix(0.9716 -0.2365 0.2365 0.9716 -83.5221 108.3909)" style="fill:#407BFF;" cx="410.016" cy="402.318" rx="24.932" ry="24.932"/>
				<circle style="fill:#FFFFFF;" cx="410.016" cy="402.318" r="20.714"/>
				<g>
					<path d="M410.727,420.047l-0.202-4.914c0.097-0.004,0.194-0.009,0.291-0.015l0.322,4.907
						C411.002,420.035,410.864,420.042,410.727,420.047z M402.779,418.519c-0.126-0.056-0.251-0.114-0.376-0.174l2.119-4.437
						c0.088,0.042,0.176,0.082,0.264,0.121L402.779,418.519z M418.884,417.688l-2.464-4.256l0.264-0.156l2.543,4.209
						C419.113,417.554,418.999,417.621,418.884,417.688z M396.079,413.305c-0.084-0.107-0.167-0.215-0.249-0.323l3.931-2.956
						l0.181,0.235L396.079,413.305z M425.005,411.81l-4.158-2.626l0.157-0.253l4.253,2.469l-0.065,0.108
						C425.148,411.581,425.077,411.696,425.005,411.81z M392.575,405.578c-0.025-0.135-0.049-0.269-0.072-0.404l4.853-0.797
						c0.015,0.096,0.033,0.192,0.051,0.288L392.575,405.578z M422.804,403.312c0.008-0.092,0.013-0.185,0.018-0.278l4.911,0.264
						c-0.008,0.141-0.017,0.282-0.029,0.423L422.804,403.312z M397.754,398.55l-4.697-1.457l0.12-0.375l4.671,1.538L397.754,398.55z
						 M421.804,397.267l-0.121-0.274l4.482-2.025c0.055,0.123,0.11,0.246,0.162,0.37L421.804,397.267z M400.912,393.28l-3.493-3.462
						c0.093-0.094,0.188-0.187,0.282-0.279l3.43,3.524L400.912,393.28z M418.11,392.369c-0.074-0.06-0.148-0.119-0.224-0.178
						l3.006-3.892c0.11,0.085,0.219,0.171,0.326,0.259L418.11,392.369z M406.153,390.089l-1.482-4.689
						c0.134-0.042,0.268-0.083,0.404-0.122l1.347,4.73C406.332,390.033,406.242,390.06,406.153,390.089z M412.564,389.746
						l-0.288-0.055l0.866-4.841c0.134,0.024,0.269,0.05,0.402,0.077L412.564,389.746z"/>
				</g>
			</g>
			<g>
				<polyline style="fill:none;stroke:#000000;stroke-linecap:round;stroke-linejoin:round;stroke-miterlimit:10;" points="
					401.252,399.21 410.311,402.914 412.136,391.905 				"/>
				<path d="M411.667,402.581c-0.073,0.851-0.821,1.482-1.672,1.41c-0.851-0.073-1.482-0.821-1.41-1.672s0.821-1.482,1.672-1.41
					S411.739,401.729,411.667,402.581z"/>
			</g>
		</g>
		<rect x="391.821" y="440.189" style="fill:#407BFF;" width="55.707" height="6.299"/>
		<rect x="389.592" y="427.453" style="fill:#407BFF;" width="55.707" height="6.299"/>
		<rect x="394.909" y="433.84" style="fill:#407BFF;" width="55.707" height="6.349"/>
		<rect x="394.909" y="433.84" style="opacity:0.2;enable-background:new    ;" width="55.707" height="6.349"/>
	</g>
</g>
<g id="Piggy_bank">
	<g>
		<polygon style="fill:#407BFF;" points="292.111,446.519 287.938,392.846 252.676,423.751 263.95,446.519 		"/>
		<polygon style="opacity:0.2;enable-background:new    ;" points="292.111,446.519 287.938,392.846 252.676,423.751 
			263.95,446.519 		"/>
		<path style="fill:#407BFF;" d="M111.133,261.433c0,0-17.477-30.007-11.976-33.958c5.502-3.951,22.068-5.342,41.847,8.197
			C135.261,248.189,124.359,257.591,111.133,261.433z"/>
		<path style="opacity:0.2;enable-background:new    ;" d="M112.819,259.587c0,0-9.883-21.096-6.806-22.93
			c3.077-1.834,14.437,1.674,25.576,12.616C126.174,261.507,112.819,259.587,112.819,259.587z"/>
		<g>
			<g>
				<path style="fill:#407BFF;" d="M314.557,326.943c6.212,5.815,15.789,7.281,23.32,3.171c3.516-1.918,6.513-5.038,8.296-8.624
					c1.885-3.79,2.961-8.62,1.445-12.717c-1.707-4.613-6.513-7.41-11.246-5.384c-4.051,1.735-6.72,6.024-7.977,10.093
					c-2.661,8.614,1.356,17.93,9.788,21.36c9.101,3.703,19.569-2.746,20.238-12.568c0.11-1.618-1.458-3-3-3
					c-1.716,0-2.889,1.377-3,3c-0.333,4.894-5.806,8.597-10.569,7.467c-5.533-1.314-8.882-6.629-8.217-12.263
					c0.309-2.622,1.561-5.545,3.537-7.484c1.761-1.728,3.698-1.849,4.719,0.522c1.035,2.403,0.184,5.708-0.82,7.786
					c-1.152,2.386-2.871,4.481-4.995,5.89c-5.276,3.502-12.548,2.937-17.279-1.491C315.982,320.063,311.73,324.297,314.557,326.943
					L314.557,326.943z"/>
			</g>
		</g>
		<path style="fill:#407BFF;" d="M201.007,215.536c66.414,0,120.25,49.528,120.25,110.637c0,61.109-53.835,110.637-120.25,110.637
			c-66.414,0-112.422-49.528-112.422-110.637C88.585,265.064,134.592,215.536,201.007,215.536z"/>
		<path style="opacity:0.2;enable-background:new    ;" d="M304.088,269.175c0,0-7.724,23.872-6.276,36.488
			c2.118,18.449,12.544,66.592,12.544,66.592s8.876-12.62,9.888-29.351c1.012-16.73-11.234-66.746-11.234-66.746L304.088,269.175z"
			/>
		<path style="opacity:0.1;enable-background:new    ;" d="M211.247,436.392c3.586-0.254,7.118-0.665,10.597-1.231l-4.813-10.068
			L211.247,436.392z"/>
		<polygon style="fill:#407BFF;" points="260.393,448.626 254.731,407.579 210.484,423.751 224.318,448.626 		"/>
		<polygon style="fill:#407BFF;" points="126.937,448.626 129.731,407.579 171.861,423.751 159.873,448.626 		"/>
		<path style="fill:#407BFF;" d="M272.799,256.781c0,0,17.219-34.795,10.597-38.02c-6.622-3.225-25.81-1.846-47.238,15.902
			C249.291,255.402,272.799,256.781,272.799,256.781z"/>
		<path style="opacity:0.2;enable-background:new    ;" d="M270.695,255.094c0,0,9.391-24.025,5.686-25.428
			c-3.705-1.403-16.407,4.234-28.161,17.773C255.556,259.451,270.695,255.094,270.695,255.094z"/>
		<path style="opacity:0.4;enable-background:new    ;" d="M222.267,220.484c-7.459-1.432-17.347-3.098-30.184-0.973
			c-13.367,1.317-17.305,5.649-17.305,5.649h18.105C199.813,220.41,222.267,220.484,222.267,220.484z"/>
		<g>
			<path style="fill:#263238;" d="M123.584,306.025c-0.5,6.334,2.356,11.954,6.38,12.555c4.023,0.601,7.689-4.045,8.189-10.378
				c0.501-6.332-2.355-11.954-6.378-12.555C127.753,295.045,124.087,299.691,123.584,306.025z"/>
			<path style="fill:#263238;" d="M121.86,293.463c0.47,0.052,0.946-0.084,1.311-0.42c5.677-5.256,12.069-3.41,12.143-3.389
				c0.947,0.276,1.906-0.26,2.123-1.227c0.214-0.965-0.387-1.98-1.347-2.27c-0.334-0.099-8.356-2.423-15.401,4.103
				c-0.701,0.65-0.716,1.802-0.032,2.571C120.988,293.199,121.421,293.414,121.86,293.463z"/>
		</g>
		<g>
			<path style="fill:#263238;" d="M214.773,308.092c0.5,6.334-2.356,11.954-6.38,12.555c-4.023,0.601-7.689-4.045-8.189-10.379
				c-0.501-6.332,2.355-11.954,6.378-12.555C210.605,297.112,214.271,301.759,214.773,308.092z"/>
			<path style="fill:#263238;" d="M216.498,295.53c-0.47,0.052-0.946-0.084-1.311-0.421c-5.677-5.256-12.069-3.41-12.143-3.389
				c-0.947,0.276-1.906-0.26-2.123-1.227c-0.214-0.965,0.387-1.98,1.347-2.27c0.334-0.099,8.356-2.423,15.401,4.103
				c0.702,0.65,0.716,1.802,0.032,2.571C217.37,295.267,216.938,295.481,216.498,295.53z"/>
		</g>
		<g>
			<g>
				<path style="opacity:0.2;enable-background:new    ;" d="M169.498,312.48c19.339,0,35.022,14.425,35.022,32.227
					c0,17.802-15.67,32.227-35.022,32.227s-35.088-14.425-35.088-32.227S150.159,312.48,169.498,312.48z"/>
				<path style="fill:#407BFF;" d="M163.568,312.48c19.339,0,35.022,14.425,35.022,32.227c0,17.802-15.67,32.227-35.022,32.227
					c-19.352,0-35.088-14.425-35.088-32.227S144.229,312.48,163.568,312.48z"/>
				<ellipse style="opacity:0.2;enable-background:new    ;" cx="172.99" cy="342.904" rx="5.041" ry="9.385"/>
				<path style="opacity:0.2;enable-background:new    ;" d="M156.251,342.904c0,5.183-2.257,9.385-5.041,9.385
					s-5.04-4.202-5.04-9.385c0-5.183,2.257-9.385,5.04-9.385S156.251,337.721,156.251,342.904z"/>
			</g>
			<g>
				<path style="fill:#263238;" d="M163.568,376.934c-18.101,0.623-35.653-13.45-35.587-32.226
					c-0.072-18.77,17.494-32.855,35.587-32.228c-13.16,0.24-26.155,7.599-31.785,19.631
					C121.521,354.44,140.494,376.707,163.568,376.934L163.568,376.934z"/>
			</g>
		</g>
		<path style="opacity:0.2;enable-background:new    ;" d="M129.369,412.898c0,0,13.262,13.333,38.34,19.469l-3.312,6.871
			l-35.873-13.932L129.369,412.898z"/>
		<g>
			<g>
				<path style="fill:#263238;" d="M217.747,356.335c8.15-3.676,12.484-13.949,9.493-22.361c-0.642-1.806-3.542-1.028-2.893,0.797
					c2.583,7.263-1.099,15.809-8.115,18.973c-0.744,0.336-0.908,1.402-0.538,2.052C216.13,356.562,217.013,356.667,217.747,356.335
					L217.747,356.335z"/>
			</g>
		</g>
		<path style="fill:#407BFF;" d="M104.603,260.46l-0.997-0.763c-4.138,5.428-7.776,11.22-10.868,17.305l1.12,0.566
			C96.921,271.555,100.517,265.829,104.603,260.46z"/>
		<path style="fill:#407BFF;" d="M91.076,283.426l-1.157-0.505c-1.157,2.659-2.215,5.403-3.151,8.148l1.231,0.406
			C88.922,288.743,89.969,286.036,91.076,283.426z"/>
	</g>
</g>
<g id="Character">
	<g>
		<g>
			<g>
				<g>
					<g>
						<g>
							<polygon style="fill:#E9B376;" points="338.164,360.318 338.871,383.546 331.201,384.104 324.897,361.842 							"/>
						</g>
					</g>
				</g>
			</g>
			<g>
				<g>
					<g>
						<g>
							<g>
								<g>
									<g>
										<g>
											<g>
												<g>
													<g>
														<g>
															<path style="fill:#263238;" d="M340.032,394.891l-6.635-0.05c0,0-1.336-0.723-2.125-0.634
																c-0.786,0.09-3.522,0.591-3.522,0.591l-17.619-0.133c0.146-0.738,0.325-1.393,0.528-1.975
																c0.247-0.709,0.532-1.309,0.847-1.816c1.105-1.773,2.599-2.396,4.22-2.486c2.468-0.136,10.271-5.26,10.271-5.26
																l3.316-2.034c-0.099-1.121-0.276-2.595,0.915-3.038c1.526-0.568,2.846-0.865,3.533,0.807l0.744,2.006l1.743-0.258
																c0,0,3.421-2.276,3.223-0.426c-0.113,1.056,1.578,5.861,1.151,9.59c-0.1,0.869-0.194,1.692-0.276,2.413l-0.002,0.001
																C340.16,393.79,340.032,394.891,340.032,394.891z"/>
														</g>
													</g>
												</g>
											</g>
										</g>
									</g>
									<g style="opacity:0.2;">
										<path style="fill:#FFFFFF;" d="M310.132,394.665l17.619,0.132c0,0,2.736-0.5,3.522-0.59
											c0.789-0.089,2.125,0.634,2.125,0.634l6.635,0.05c0,0,0.127-1.1,0.31-2.702l-29.683,0.501
											C310.457,393.272,310.278,393.927,310.132,394.665z"/>
									</g>
									<g>
										<g>
											<g>
												<g>
													<path style="fill:#407BFF;" d="M322.117,385.022c0.082-0.079,0.208-0.087,0.303-0.023
														c0.435,0.293,0.798,0.706,1.044,1.221c0.129,0.272-0.268,0.53-0.398,0.256c-0.218-0.458-0.536-0.822-0.916-1.08
														c-0.127-0.086-0.147-0.264-0.036-0.37C322.115,385.024,322.116,385.023,322.117,385.022z"/>
												</g>
											</g>
										</g>
									</g>
									<g>
										<g>
											<g>
												<g>
													<path style="fill:#407BFF;" d="M323.525,384.207c0.082-0.079,0.208-0.087,0.303-0.023
														c0.435,0.293,0.798,0.706,1.044,1.221c0.129,0.272-0.268,0.53-0.398,0.256c-0.218-0.458-0.536-0.823-0.916-1.08
														c-0.127-0.086-0.147-0.264-0.036-0.37C323.523,384.209,323.524,384.208,323.525,384.207z"/>
												</g>
											</g>
										</g>
									</g>
									<g>
										<g>
											<g>
												<g>
													<path style="fill:#407BFF;" d="M324.977,383.447c0.082-0.079,0.208-0.087,0.303-0.023
														c0.435,0.293,0.798,0.706,1.044,1.221c0.13,0.272-0.268,0.53-0.398,0.256c-0.218-0.458-0.536-0.822-0.916-1.079
														c-0.127-0.086-0.147-0.264-0.036-0.37C324.974,383.449,324.975,383.448,324.977,383.447z"/>
												</g>
											</g>
										</g>
									</g>
								</g>
							</g>
						</g>
					</g>
				</g>
			</g>
		</g>
		<g>
			<g>
				<g>
					<g>
						<g>
							<polygon style="fill:#E9B376;" points="361.695,360.482 364.927,384.195 372.655,384.586 375.158,361.725 							"/>
						</g>
					</g>
				</g>
			</g>
			<g>
				<g>
					<g>
						<path style="fill:#263238;" d="M379.235,395.205h-17.286c0,0-0.377-0.726,0.054-2.659c0.066-0.301,0.151-0.632,0.263-0.993
							c0.006-0.018,0.01-0.036,0.016-0.054c0.162-0.535,0.347-1.193,0.544-1.903c0.792-2.894,1.723-6.676,1.723-6.676
							s2.876-6.157,6.241-4.62c2.952,1.349,2.252,5.208,2.252,5.208s0.289,2.266,2.527,4.264c1.384,1.234,2.76,2.19,3.423,3.726
							c0.124,0.287,0.221,0.592,0.291,0.923c0.008,0.04,0.016,0.082,0.022,0.124C379.443,393.286,379.435,394.154,379.235,395.205z"
							/>
					</g>
				</g>
			</g>
			<g style="opacity:0.2;">
				<path style="fill:#FFFFFF;" d="M362.003,392.546c-0.431,1.933-0.054,2.659-0.054,2.659h17.286
					c0.199-1.051,0.208-1.919,0.07-2.659H362.003z"/>
			</g>
			<g>
				<g>
					<g>
						<g>
							<path style="fill:#407BFF;" d="M372.346,384.478c-0.972-0.757-2.248-0.659-3.123,0.194c-0.235,0.229-0.596-0.131-0.361-0.361
								c1.091-1.065,2.65-1.124,3.844-0.194C372.966,384.319,372.602,384.678,372.346,384.478L372.346,384.478z"/>
						</g>
					</g>
				</g>
			</g>
			<g>
				<g>
					<g>
						<g>
							<path style="fill:#407BFF;" d="M372.835,386.093c-0.972-0.758-2.248-0.659-3.123,0.194c-0.235,0.229-0.596-0.131-0.361-0.361
								c1.091-1.065,2.65-1.124,3.844-0.194C373.454,385.933,373.091,386.292,372.835,386.093L372.835,386.093z"/>
						</g>
					</g>
				</g>
			</g>
			<g>
				<g>
					<g>
						<g>
							<path style="fill:#407BFF;" d="M373.324,387.577c-0.972-0.758-2.248-0.659-3.123,0.193c-0.235,0.23-0.596-0.131-0.361-0.361
								c1.092-1.064,2.65-1.124,3.844-0.194C373.944,387.418,373.581,387.776,373.324,387.577L373.324,387.577z"/>
						</g>
					</g>
				</g>
			</g>
		</g>
		<g>
			<g>
				<g>
					<path style="fill:#263238;" d="M378.434,210.075l-36.192,0.307l-22.713-0.689c0,0-10.073,70.726-11.426,83.676
						c-1.353,12.95,16.277,83.608,16.277,83.608h19.031c0,0-10.551-71.5-9.103-78.506c1.262-6.107,9.334-47.217,12.897-57.171
						c0.358,2.039,0.726,4.086,1.101,6.117c0.902,9.178,3.792,38.441,5.05,49.331c0,0,2.734,62.205,5.907,80.269l16.621,0.028
						c2.194-25.644,3.602-115.719,3.602-115.719l-0.003-0.002C380.714,241.76,378.434,210.075,378.434,210.075z"/>
				</g>
			</g>
			<g style="opacity:0.5;">
				<path d="M331.466,219.975c-2.111,6.937-7.754,12.509-14.716,14.535c-0.375,0.109-0.216,0.697,0.162,0.587
					c7.167-2.086,12.968-7.82,15.141-14.961C332.168,219.761,331.58,219.6,331.466,219.975L331.466,219.975z"/>
				<path d="M347.799,219.974c-0.411,6.069-0.813,12.148-1.224,18.217c-0.02,0.391-0.626,0.391-0.607,0
					c0.215-3.113,0.421-6.236,0.626-9.358c-1.498,1.155-3.25-0.245-3.739-1.791c-0.803-2.506-0.499-5.482,0.127-7.988
					c0.098-0.382,0.685-0.215,0.587,0.157c-0.44,1.762-0.626,3.563-0.499,5.374c0.059,0.92,0.147,1.977,0.577,2.819
					c0.48,0.94,1.693,1.732,2.663,0.881c0.108-0.088,0.225-0.098,0.323-0.049c0.186-2.751,0.372-5.511,0.558-8.262
					C347.212,219.582,347.819,219.582,347.799,219.974z"/>
				<path d="M365.646,221.008c-0.086,8.045,6.108,14.783,14.116,15.415c0.384,0.03,0.382-0.568,0-0.598
					c-7.685-0.607-13.6-7.118-13.518-14.817C366.249,220.622,365.65,220.622,365.646,221.008L365.646,221.008z"/>
			</g>
		</g>
		<g>
			<g>
				<g>
					<g>
						<g>
							<path style="fill:#E9B376;" d="M339.814,113.964c0,0-2.11-5.832-0.797-16.993c-0.003-0.011-0.604-0.167-0.607-0.178
								c0.177-1.56,0.401-3.011,0.629-4.275c0.004-0.036,0.002-0.048,0.002-0.048l-13.063,11.428
								c0.909,3.348,0.784,10.13,0.518,13.03c0,0-1,5.338,5.729,4.443C337.143,120.716,339.814,113.964,339.814,113.964z"/>
							<path style="opacity:0.2;" d="M326.526,108.727l8.067-3.286c-0.326,2.733-2.118,6.207-7.909,7.432
								C326.684,112.872,326.779,109.858,326.526,108.727z"/>
						</g>
						<g>
							<path style="fill:#E9B376;" d="M337.975,85.377c0.557,9.396,1.06,14.685-3.085,20c-6.236,7.996-18.003,5.193-21.364-3.874
								c-3.026-8.162-3.428-22.157,5.281-26.889C327.386,69.952,337.418,75.981,337.975,85.377z"/>
							<path style="fill:#263238;" d="M335.303,72.027c-3.959-5.348-12.295-1.489-15.575,1.573c-0.49,0.458,7.604,3.366,7.121,3.254
								l2.457,2.345c0.346-0.122,0.819,3.127,1.214,5.941c0.363,2.584,1.415,5.014,3.057,7.041c1.376,1.699,3.236,3.749,5.366,5.455
								c3.064-1.982,2.568-7.673,3.186-11.173C343.05,81.249,343.614,71.408,335.303,72.027z"/>
							<path style="fill:#E9B376;" d="M342.6,92.706c-0.455,2.492-2.024,4.531-3.763,5.674c-2.616,1.72-4.022-1.198-4.114-4.168
								c-0.083-2.674,0.299-5.989,3.318-6.516C341.016,87.177,343.12,89.857,342.6,92.706z"/>
							<path style="fill:#263238;" d="M324.951,89.687c0.116,0.954-0.298,1.785-0.923,1.854c-0.625,0.07-1.227-0.648-1.342-1.602
								c-0.116-0.954,0.298-1.785,0.923-1.854C324.234,88.015,324.835,88.732,324.951,89.687z"/>
							<path style="fill:#263238;" d="M315.612,91.007c0.116,0.954-0.297,1.784-0.923,1.854c-0.626,0.069-1.227-0.648-1.342-1.602
								c-0.116-0.954,0.298-1.785,0.923-1.854C314.895,89.335,315.496,90.052,315.612,91.007z"/>
							<path style="fill:#D58745;" d="M318.594,90.109c0,0-2.447,5.108-3.182,7.157c1.474,1.039,3.695,0.209,3.695,0.209
								L318.594,90.109z"/>
							<path style="fill:#263238;" d="M326.739,84.906c-0.137,0.076-0.311,0.079-0.456-0.009c-1.727-1.039-3.232-0.345-3.247-0.338
								c-0.224,0.107-0.495,0.012-0.604-0.211c-0.109-0.223-0.014-0.491,0.209-0.597c0.079-0.038,1.965-0.909,4.107,0.381
								c0.214,0.129,0.283,0.404,0.155,0.616C326.861,84.816,326.804,84.869,326.739,84.906z"/>
							
								<path style="fill:none;stroke:#263238;stroke-width:0.75;stroke-linecap:round;stroke-linejoin:round;stroke-miterlimit:10;" d="
								M322.603,100.137c1.549-0.176,2.657-1.093,3.716-2.392"/>
						</g>
						
							<path style="opacity:0.2;fill:none;stroke:#000000;stroke-width:0.5;stroke-linecap:round;stroke-linejoin:round;stroke-miterlimit:10;" d="
							M340.157,90.385c-0.443-0.511-1.234-0.623-1.867-0.384c-0.633,0.24-1.118,0.771-1.451,1.361
							c-0.399,0.707-0.609,1.52-0.603,2.333"/>
					</g>
					<path style="fill:#263238;" d="M310.994,87.479c-0.085-0.008-0.169-0.04-0.241-0.098c-0.194-0.157-0.228-0.44-0.073-0.634
						c1.546-1.942,3.605-1.738,3.698-1.741c0.247,0.026,0.429,0.247,0.406,0.494c-0.023,0.247-0.24,0.426-0.485,0.403
						c-0.085-0.012-1.673-0.148-2.914,1.41C311.287,87.435,311.138,87.492,310.994,87.479z"/>
				</g>
			</g>
			<path style="fill:#263238;" d="M335.303,72.027c0,0-5.238-7.484-15.317-5.839c-8.107,1.323-12.674,6.867-13.218,12.439
				c-0.234,2.394,0.174,4.216,0.715,5.515c0.409,0.981,1.782,0.934,2.158-0.06c0.107-0.282,0.231-0.559,0.371-0.828
				c0.028,0.065,0.058,0.13,0.09,0.192c0.513,1.014,2.083,0.764,2.186-0.368c0.033-0.357,0.098-0.713,0.197-1.061
				c0.005,0.009,0.009,0.017,0.014,0.026c0.472,0.891,1.822,0.725,2.103-0.243c1.241-4.273,6.756-7.163,11.398-4.89l3.304,2.288
				C333.418,77.165,335.303,72.027,335.303,72.027z"/>
		</g>
		<g>
			<g>
				<path style="fill:#D58745;" d="M258.274,177.138c0.331,0.271,41.112-1.611,41.112-1.611l3.818-29.112
					c0,0,17.255,6.47,16.925,6.827c-0.33,0.357,0.05,22.609-4.166,34.176c-3.532,9.689-35.999,5.877-54.421,1.402L258.274,177.138z"
					/>
				<path style="fill:#263238;" d="M308.913,121.219c7.911,0.071,12.019,13.325,12.373,47.759l-22.034-2.252
					c0,0-0.413-15.214-0.475-25.666C300.04,123.098,308.913,121.219,308.913,121.219z"/>
				<path style="opacity:0.5;fill:#FFFFFF;" d="M308.913,121.219c7.911,0.071,12.019,13.325,12.373,47.759l-22.034-2.252
					c0,0-0.413-15.214-0.475-25.666C300.04,123.098,308.913,121.219,308.913,121.219z"/>
				<path style="fill:#263238;" d="M312.167,119.857c4.902-1.36,24.268-7.209,45.408-7.433l16.511,72.379
					c0,0,3.425,14.284,5.044,25.479c-19.473,12.687-47.253,16.029-62.544,10.471c0.215,0.303-0.713-8.374-2.026-21.09
					c-2.314-22.409-5.823-57.365-6.38-77.842C308.174,121.314,311.679,119.993,312.167,119.857z"/>
				<polygon style="opacity:0.2;enable-background:new    ;" points="311.102,164.399 309.057,139.027 307.19,167.537 
					311.477,167.975 				"/>
				<path style="opacity:0.5;fill:#FFFFFF;" d="M312.167,119.857c4.902-1.36,24.268-7.209,45.408-7.433l16.511,72.379
					c0,0,3.425,14.284,5.044,25.479c-19.473,12.687-47.253,16.029-62.544,10.471c0.215,0.303-0.713-8.374-2.026-21.09
					c-2.314-22.409-5.823-57.365-6.38-77.842C308.174,121.314,311.679,119.993,312.167,119.857z"/>
			</g>
			<polygon style="fill:#263238;" points="338.709,106.971 330.087,115.609 326.257,112.259 322.421,116.855 330.087,124.999 
				343.371,113.355 			"/>
			<polygon style="opacity:0.7;fill:#FFFFFF;" points="338.709,106.971 330.087,115.609 326.257,112.259 322.421,116.855 
				330.087,124.999 343.371,113.355 			"/>
			<g>
				<g>
					
						<ellipse transform="matrix(0.6935 -0.7205 0.7205 0.6935 -37.3912 257.5369)" style="fill:#407BFF;" cx="283.966" cy="172.711" rx="26.671" ry="26.671"/>
					
						<ellipse transform="matrix(0.6935 -0.7205 0.7205 0.6935 -37.3912 257.5369)" style="opacity:0.3;" cx="283.966" cy="172.711" rx="26.671" ry="26.671"/>
					
						<ellipse transform="matrix(0.0056 -1 1 0.0056 108.4695 453.1408)" style="fill:#407BFF;" cx="282.072" cy="172.032" rx="26.671" ry="26.671"/>
					
						<ellipse transform="matrix(0.9179 -0.3967 0.3967 0.9179 -45.1018 126.0207)" style="fill:#FFFFFF;" cx="282.072" cy="172.032" rx="22.158" ry="22.158"/>
					<g>
						<path d="M279.449,190.832l0.722-5.211c0.103,0.014,0.206,0.027,0.31,0.039l-0.595,5.227
							C279.74,190.87,279.594,190.852,279.449,190.832z M271.372,187.71c-0.122-0.083-0.242-0.168-0.363-0.254l3.075-4.268
							c0.084,0.061,0.169,0.12,0.254,0.178L271.372,187.71z M288.484,189.899l-1.785-4.949l0.308-0.114l1.876,4.915
							C288.75,189.802,288.617,189.851,288.484,189.899z M265.312,180.947c-0.069-0.129-0.135-0.258-0.201-0.388l4.7-2.364
							l0.145,0.282L265.312,180.947z M296.046,184.876l-3.877-3.556l0.214-0.237l4.007,3.408l-0.089,0.102
							C296.24,184.662,296.143,184.77,296.046,184.876z M263.093,172.147c-0.001-0.147,0-0.293,0.002-0.439l5.261,0.084
							c-0.002,0.104-0.002,0.209-0.001,0.313L263.093,172.147z M295.345,175.511c0.026-0.096,0.049-0.192,0.072-0.289l5.12,1.212
							c-0.035,0.147-0.072,0.293-0.111,0.439L295.345,175.511z M269.881,165.734l-4.667-2.427l0.198-0.372l4.624,2.507
							L269.881,165.734z M295.443,168.958l-0.075-0.312l5.103-1.279c0.035,0.14,0.069,0.28,0.1,0.42L295.443,168.958z
							 M274.209,160.786l-3.018-4.309c0.116-0.081,0.233-0.161,0.35-0.24l2.94,4.362L274.209,160.786z M292.486,163.099
							c-0.066-0.078-0.134-0.154-0.202-0.23l3.905-3.525c0.1,0.111,0.198,0.222,0.294,0.335L292.486,163.099z M280.332,158.424
							l-0.668-5.218c0.149-0.019,0.298-0.036,0.449-0.052l0.518,5.236C280.531,158.4,280.431,158.411,280.332,158.424z
							 M287.147,159.282l-0.293-0.113l1.833-4.931c0.137,0.051,0.273,0.103,0.408,0.157L287.147,159.282z"/>
					</g>
				</g>
				<g>
					<polyline style="fill:none;stroke:#000000;stroke-linecap:round;stroke-linejoin:round;stroke-miterlimit:10;" points="
						273.438,167.094 282.192,172.933 286.208,161.691 					"/>
					<path d="M283.76,172.623c-0.238,0.882-1.147,1.404-2.029,1.166c-0.882-0.238-1.404-1.146-1.166-2.029
						c0.238-0.882,1.147-1.404,2.029-1.166C283.476,170.833,283.998,171.741,283.76,172.623z"/>
				</g>
			</g>
		</g>
		<path style="opacity:0.3;" d="M262.514,165.74c4.129-11.52,16.815-17.511,28.335-13.382c2.831,1.015,5.322,2.55,7.417,4.454
			c-2.339-2.524-5.291-4.55-8.755-5.792c-11.52-4.129-24.206,1.862-28.335,13.382c-3.114,8.689-0.466,18.037,5.964,23.881
			C261.701,182.412,259.627,173.796,262.514,165.74z"/>
		<g>
			<g>
				<g>
					<path style="fill:#E9B376;" d="M255.823,176.754c0,0,10.939,0.33,12.343,2.153c1.404,1.824-1.832,2.385-1.832,2.385
						s3.599-0.399,3.975,1.106c0.452,1.806-2.942,2.38-2.942,2.38s2.952-0.206,3.197,1.155c0.254,1.412-3.53,2.332-3.53,2.332
						s2.106,0.248,1.741,1.291c-0.366,1.043-8.359,3.149-11.071,2.173c-2.712-0.976-5.044-11.332-5.088-13.697
						c-0.044-2.364,0.28-3.977,2.726-4.987L255.823,176.754L255.823,176.754z"/>
				</g>
				<g>
					<path style="opacity:0.2;" d="M266.364,181.464c-0.005,0.001-0.01,0.002-0.015,0.002l-6.308,0.396
						c-0.085,0.005-0.16-0.068-0.168-0.164c-0.008-0.096,0.057-0.18,0.139-0.183l6.307-0.396c0.085-0.005,0.16,0.068,0.168,0.164
						C266.495,181.373,266.441,181.451,266.364,181.464z"/>
				</g>
				<g>
					<path style="opacity:0.2;" d="M267.22,184.981c-0.001,0-0.002,0-0.004,0.001l-6.028,0.862c-0.084,0.012-0.163-0.055-0.178-0.15
						c-0.014-0.096,0.033-0.165,0.126-0.194l6.028-0.862c0.084-0.012,0.163,0.055,0.178,0.15
						C267.357,184.881,267.302,184.967,267.22,184.981z"/>
				</g>
				<g>
					<path style="opacity:0.2;" d="M266.859,188.472l-4.461,0.769c-0.084,0.014-0.165-0.051-0.181-0.146
						c-0.016-0.094,0.038-0.183,0.121-0.198l4.461-0.769c0.084-0.014,0.165,0.051,0.181,0.146
						C266.997,188.369,266.943,188.458,266.859,188.472z"/>
				</g>
			</g>
		</g>
		<g>
			<g>
				<g>
					<g>
						<g>
							<g>
								<g>
									<g>
										<path style="fill:#E9B376;" d="M312.443,174.771c0,0-3.18-2.622-6.569-2.257c-3.389,0.366-6.192-0.244-8.692,0.202
											c-2.5,0.446,0.447,2.197,2.203,2.811c1.756,0.614,3.741,1.328,3.066,2.572c-0.674,1.245-11.032,7.645-11.771,9.477
											c-0.739,1.832,1.26,1.321,1.26,1.321s-2.474,1.622-2.098,2.777c0.098,0.3,0.811,0.839,2.054,0.277
											c2.797-1.266,8.529-4.224,8.529-4.224c-0.332,0.163-7.147,4.32-8.087,5.076c-1.228,0.988-1.303,2.08-0.707,2.773
											c0.848,0.987,9.474-3.879,9.981-3.83c0,0-5.059,2.636-5.094,4.314c-0.034,1.678,3.241,0.193,5.88-1.665
											c2.419-1.703,7.612-4.412,9.903-6.382c2.824-2.428,4.174-4.692,3.197-8.045
											C314.523,176.615,312.443,174.771,312.443,174.771z"/>
									</g>
								</g>
							</g>
						</g>
					</g>
				</g>
				
					<path style="opacity:0.3;fill:none;stroke:#000000;stroke-width:0.25;stroke-linecap:round;stroke-linejoin:round;stroke-miterlimit:10;" d="
					M292.225,188.621c2.015-1.25,4.087-2.409,6.208-3.471"/>
			</g>
			<g>
				<path style="fill:#E9B376;" d="M350.055,151.017l-0.934,16.904l-36.947,6.519l1.838,12.763
					c-13.595,0.992,41.806-0.601,48.695-3.059c6.007-2.143,4.45-33.648,4.45-33.648L350.055,151.017z"/>
				<path style="fill:#263238;" d="M357.575,112.424c0,0,10.414,0.869,10.979,11.267c0.52,9.575,0.649,32.89,0.649,32.89
					l-20.6-0.139l-0.768-24.822L357.575,112.424z"/>
				<path style="opacity:0.5;fill:#FFFFFF;" d="M357.575,112.424c0,0,10.414,0.869,10.979,11.267
					c0.52,9.575,0.649,32.89,0.649,32.89l-20.6-0.139l-0.768-24.822L357.575,112.424z"/>
			</g>
		</g>
	</g>
	<g>
		<rect x="304.098" y="400.526" style="fill:#263238;" width="6.749" height="45.993"/>
		<rect x="346.088" y="400.526" style="fill:#263238;" width="6.749" height="45.993"/>
		<rect x="376.531" y="400.526" style="fill:#263238;" width="6.749" height="45.993"/>
		<rect x="333.038" y="400.526" style="fill:#263238;" width="6.749" height="45.993"/>
		<rect x="300.499" y="393.029" style="fill:#263238;" width="84.58" height="9.49"/>
	</g>
</g>
</svg>
